<?xml version="1.0" encoding="utf-8"?>
<!-- Generator: Adobe Illustrator 18.1.1, SVG Export Plug-In . SVG Version: 6.00 Build 0)  -->
<!DOCTYPE svg PUBLIC "-//W3C//DTD SVG 1.1//EN" "http://www.w3.org/Graphics/SVG/1.1/DTD/svg11.dtd">
<svg version="1.1" id="Layer_1" xmlns="http://www.w3.org/2000/svg" xmlns:xlink="http://www.w3.org/1999/xlink" x="0px" y="0px"
	 viewBox="33 -33.9 266.9 266.9" enable-background="new 33 -33.9 266.9 266.9" xml:space="preserve">
<path id="Blue_1_" opacity="0.45" fill="#1A1A1A" d="M281.1,228.4c7.9,0,14.2-6.4,14.2-14.2V-15.1c0-7.9-6.4-14.2-14.2-14.2H51.8
	c-7.9,0-14.2,6.4-14.2,14.2v229.3c0,7.9,6.4,14.2,14.2,14.2H281.1z"/>
<path id="f" fill="#FFFFFF" d="M215.4,228.4v-99.8h33.5l5-38.9h-38.5V64.9c0-11.3,3.1-18.9,19.3-18.9l20.6,0V11.2
	c-3.6-0.5-15.8-1.5-30-1.5c-29.7,0-50,18.1-50,51.4v28.7h-33.6v38.9h33.6v99.8H215.4z"/>
</svg>
