<?xml version="1.0" encoding="utf-8"?>
<!-- Generator: Adobe Illustrator 18.1.1, SVG Export Plug-In . SVG Version: 6.00 Build 0)  -->
<!DOCTYPE svg PUBLIC "-//W3C//DTD SVG 1.1//EN" "http://www.w3.org/Graphics/SVG/1.1/DTD/svg11.dtd">
<svg version="1.1" xmlns="http://www.w3.org/2000/svg" xmlns:xlink="http://www.w3.org/1999/xlink" x="0px" y="0px"
	 viewBox="0 0 200 200" enable-background="new 0 0 200 200" xml:space="preserve">
<g id="Layer_2">
	<path id="Blue_1_" opacity="0.45" fill="#1A1A1A" enable-background="new    " d="M186.9,196.6c5.9,0,10.6-4.8,10.6-10.6V14.1
		c0-5.9-4.8-10.6-10.6-10.6H15.1C9.2,3.4,4.4,8.2,4.4,14.1v171.8c0,5.9,4.8,10.6,10.6,10.6H186.9z"/>
</g>
<g id="Layer_1">
	<path fill="#FFFFFF" d="M30.5,148.7c34.2,19.5,75.4,16.6,102.7-6.3c29.3-24.6,29.7-61.7,29.7-67.3c-0.2-0.6-0.3-1.2-0.5-1.8
		c5.1-4.8,10.1-9.6,15.2-14.3c-5.7,1.3-11.4,2.7-17.2,4c1.5-0.9,3.1-2,4.7-3.5c5.1-4.6,7.5-9.9,8.7-13.3c-1.3,0.9-2.6,1.8-4.2,2.7
		c-5.6,3.2-11.1,4.5-15.3,5.2c-0.7-0.7-1.7-1.8-3-2.8c-0.5-0.4-9.4-7.5-20.8-7c-10.8,0.5-20.9,7.6-26.2,18.3c-0.6,1.4-1.2,3-1.7,4.8
		c-1.4,5.7-0.5,10.7,0.3,13.7c-4.2-0.3-8.8-0.9-13.5-2c-24.1-5.6-40.3-20.7-48.7-30.2c-1,1.7-2.1,4.3-3,7.5
		c-0.5,1.7-2.1,7.9-0.7,14.7C39.3,82,48.3,88.2,50.5,89.7c-1.9,0.1-4.9-0.1-8.3-1.3c-2.4-0.9-4.3-2-5.7-3c-0.1,0.8-0.2,2-0.2,3.5
		c0.4,11,9.4,22,19.7,25c3.2,1,6.2,1,6.2,1.3c0,0.6-8,0.6-15,0.5c0.3,1.4,0.9,3.4,2,5.7c3.3,6.7,8.8,9.9,10.8,11
		c6.2,3.5,12.1,3.7,14.8,3.7c-1.1,1.3-2.3,2.5-3.5,3.5C57.9,151.2,39,149.9,30.5,148.7z"/>
	<path fill="#FFFFFF" d="M183,163.7"/>
	<rect x="-174.3" y="-32" fill="#FFFFFF" width="0" height="0"/>
</g>
</svg>
